#N canvas 641 258 622 524 12;
#X obj 282 275 osc~;
#X obj 277 459 dac~;
#X floatatom 28 195 5 0 0 0 - - - 0;
#X floatatom 85 211 5 0 0 0 - - - 0;
#X floatatom 194 222 5 0 0 0 - - - 0;
#X floatatom 147 222 5 0 0 0 - - - 0;
#X obj 348 216 vsl 15 128 0 127 0 0 empty empty empty 0 -9 0 10 #fcfcfc
#000000 #000000 0 1;
#X obj 318 376 *~ -0.5;
#X obj 52 138 unpack f f f f;
#X obj 288 49 pack f 0;
#X obj 102 467 print;
#X obj 116 388 makefilename %d;
#X text 119 258 mensaje de python;
#X msg 69 294 \$1 \;;
#X obj 53 98 netreceive -u -b -f 8003;
#X connect 0 0 7 0;
#X connect 2 0 13 0;
#X connect 6 0 7 1;
#X connect 7 0 1 0;
#X connect 7 0 1 1;
#X connect 8 0 2 0;
#X connect 8 1 3 0;
#X connect 8 2 5 0;
#X connect 8 3 4 0;
#X connect 11 0 10 0;
#X connect 13 0 11 0;
#X connect 14 0 8 0;
